<?xml version="1.0" encoding="UTF-8" standalone="no"?>
<!-- Generator: Adobe Illustrator 15.0.0, SVG Export Plug-In . SVG Version: 6.00 Build 0)  -->

<svg
   xmlns:dc="http://purl.org/dc/elements/1.1/"
   xmlns:cc="http://creativecommons.org/ns#"
   xmlns:rdf="http://www.w3.org/1999/02/22-rdf-syntax-ns#"
   xmlns:svg="http://www.w3.org/2000/svg"
   xmlns="http://www.w3.org/2000/svg"
   xmlns:sodipodi="http://sodipodi.sourceforge.net/DTD/sodipodi-0.dtd"
   xmlns:inkscape="http://www.inkscape.org/namespaces/inkscape"
   version="1.1"
   id="Layer_1"
   x="0px"
   y="0px"
   width="64px"
   height="64px"
   viewBox="0 0 64 64"
   enable-background="new 0 0 64 64"
   xml:space="preserve"
   inkscape:version="0.48.4 r9939"
   sodipodi:docname="camera.svg"><metadata
   id="metadata3037"><rdf:RDF><cc:Work
       rdf:about=""><dc:format>image/svg+xml</dc:format><dc:type
         rdf:resource="http://purl.org/dc/dcmitype/StillImage" /><dc:title /></cc:Work></rdf:RDF></metadata><defs
   id="defs3035" /><sodipodi:namedview
   pagecolor="#ffffff"
   bordercolor="#666666"
   borderopacity="1"
   objecttolerance="10"
   gridtolerance="10"
   guidetolerance="10"
   inkscape:pageopacity="0"
   inkscape:pageshadow="2"
   inkscape:window-width="1366"
   inkscape:window-height="705"
   id="namedview3033"
   showgrid="false"
   inkscape:zoom="3.6875"
   inkscape:cx="32"
   inkscape:cy="10.305085"
   inkscape:window-x="1432"
   inkscape:window-y="71"
   inkscape:window-maximized="1"
   inkscape:current-layer="Layer_1" />
<g
   id="g3013"
   transform="matrix(0.7570667,0,0,0.81470008,7.4940831,5.1332075)">
	<g
   id="g3015">
		<g
   id="g3017">
			<path
   d="M 59.907,52.489 H 4.092 V 16.125 h 18.792 l 3.998,-4.614 H 37.22 l 4.614,4.614 H 59.907 V 52.489 z M 5.938,50.645 H 58.063 V 17.969 H 41.069 l -4.614,-4.614 h -8.729 l -3.997,4.614 H 5.938 v 32.676 z"
   id="path3019"
   inkscape:connector-curvature="0"
   style="fill:#231f20" />
		</g>
	</g>
	<g
   id="g3021">
		<g
   id="g3023">
			<path
   d="m 32,47.189 c -6.784,0 -12.303,-5.521 -12.303,-12.304 0,-6.783 5.52,-12.302 12.303,-12.302 6.782,0 12.302,5.52 12.302,12.302 C 44.303,41.669 38.782,47.189 32,47.189 z M 32,24.43 c -5.766,0 -10.458,4.69 -10.458,10.456 0,5.767 4.692,10.458 10.458,10.458 5.766,0 10.457,-4.691 10.457,-10.458 C 42.457,29.12 37.767,24.43 32,24.43 z"
   id="path3025"
   inkscape:connector-curvature="0"
   style="fill:#231f20" />
		</g>
	</g>
	<g
   id="g3027">
		<g
   id="g3029">
			<rect
   x="9.6199999"
   y="21.351999"
   width="5.2280002"
   height="2.154"
   id="rect3031"
   style="fill:#231f20" />
		</g>
	</g>
</g>
</svg>