<?xml version="1.0" encoding="UTF-8" standalone="no"?>
<!-- Generator: Adobe Illustrator 15.0.0, SVG Export Plug-In . SVG Version: 6.00 Build 0)  -->

<svg
   xmlns:dc="http://purl.org/dc/elements/1.1/"
   xmlns:cc="http://creativecommons.org/ns#"
   xmlns:rdf="http://www.w3.org/1999/02/22-rdf-syntax-ns#"
   xmlns:svg="http://www.w3.org/2000/svg"
   xmlns="http://www.w3.org/2000/svg"
   xmlns:sodipodi="http://sodipodi.sourceforge.net/DTD/sodipodi-0.dtd"
   xmlns:inkscape="http://www.inkscape.org/namespaces/inkscape"
   version="1.1"
   id="Layer_1"
   x="0px"
   y="0px"
   width="64px"
   height="64px"
   viewBox="0 0 64 64"
   enable-background="new 0 0 64 64"
   xml:space="preserve"
   inkscape:version="0.48.4 r9939"
   sodipodi:docname="camcorder6.svg"><metadata
   id="metadata3017"><rdf:RDF><cc:Work
       rdf:about=""><dc:format>image/svg+xml</dc:format><dc:type
         rdf:resource="http://purl.org/dc/dcmitype/StillImage" /><dc:title></dc:title></cc:Work></rdf:RDF></metadata><defs
   id="defs3015" /><sodipodi:namedview
   pagecolor="#ffffff"
   bordercolor="#666666"
   borderopacity="1"
   objecttolerance="10"
   gridtolerance="10"
   guidetolerance="10"
   inkscape:pageopacity="0"
   inkscape:pageshadow="2"
   inkscape:window-width="1440"
   inkscape:window-height="837"
   id="namedview3013"
   showgrid="false"
   inkscape:zoom="3.6875"
   inkscape:cx="32"
   inkscape:cy="32"
   inkscape:window-x="-8"
   inkscape:window-y="-8"
   inkscape:window-maximized="1"
   inkscape:current-layer="Layer_1" />
<g
   id="g3003"
   transform="matrix(0.88458443,0,0,0.91273398,3.5746541,3.4656748)">
	<g
   id="g3005">
		<path
   d="m 58.75,25.871 c -0.17,-0.128 -0.392,-0.169 -0.6,-0.111 l -8.152,2.336 c -0.293,0.084 -0.497,0.353 -0.497,0.656 v 0.251 h -4.763 v -5.566 -0.201 -2.007 h 4.286 v 1.321 h 5.134 c 2.25,0 4.077,-1.529 4.077,-3.408 0,-1.879 -1.827,-3.408 -4.077,-3.408 h -5.134 v 1.321 h -4.63 c -0.788,-2.154 -2.85,-3.7 -5.272,-3.7 H 21.83 c -3,0 -6.354,2.403 -6.354,5.618 v 1.518 H 7.728 c -1.516,0 -2.749,1.231 -2.749,2.747 v 21.764 c 0,1.516 1.233,2.748 2.749,2.748 h 1.564 v 2.896 H 19.771 V 47.75 h 12.502 v 2.896 h 7.63 V 47.75 h 2.089 c 1.514,0 2.746,-1.232 2.746,-2.748 v -3.848 h 4.763 v 0.25 c 0,0.295 0.188,0.555 0.468,0.649 l 8.154,2.729 c 0.07,0.024 0.143,0.034 0.216,0.034 0.141,0 0.281,-0.044 0.398,-0.128 0.182,-0.128 0.284,-0.335 0.284,-0.555 V 26.417 c 0,-0.214 -0.1,-0.416 -0.271,-0.546 z m -1.88,-6.729 c 0,1.126 -1.216,2.042 -2.712,2.042 H 50.39 V 17.1 h 3.769 c 1.495,0 2.711,0.916 2.711,2.042 z M 44.938,18.42 h 4.087 v 1.442 H 44.938 V 18.42 z m -28.097,0.553 c 0,-2.394 2.682,-4.25 4.989,-4.25 h 17.292 c 2.343,0 4.251,1.907 4.251,4.25 v 1.903 C 42.966,20.638 42.497,20.491 41.992,20.491 H 21.418 v -0.075 c 0,-1.327 1.702,-2.395 3.113,-2.395 h 11.574 c 1.446,0 2.619,1.074 2.619,2.395 h 1.368 c 0,-2.075 -1.788,-3.762 -3.987,-3.762 H 24.531 c -2.114,0 -4.481,1.609 -4.481,3.762 v 0.075 h -3.209 v -1.518 z m 1.562,30.305 h -7.746 v -1.529 h 7.746 v 1.529 z m 20.134,0 h -4.896 v -1.529 h 4.896 v 1.529 z m 4.836,-4.277 c 0,0.762 -0.62,1.381 -1.381,1.381 H 39.903 32.273 19.771 9.292 7.728 c -0.763,0 -1.381,-0.619 -1.381,-1.381 V 23.237 c 0,-0.761 0.618,-1.381 1.381,-1.381 h 34.265 c 0.761,0 1.381,0.62 1.381,1.381 v 0.201 5.566 12.15 3.847 z m 1.365,-5.213 v -9.417 h 4.763 v 9.417 H 44.738 z M 57.655,43.184 51.02,40.963 V 29.225 l 6.635,-1.9 v 15.859 z"
   id="path3007"
   inkscape:connector-curvature="0"
   style="fill:#231f20" />
	</g>
	<g
   id="g3009">
		<path
   d="m 9.292,44.511 h 13.73 V 36.433 H 9.292 v 8.078 z m 1.365,-6.713 h 10.999 v 5.347 H 10.657 v -5.347 z"
   id="path3011"
   inkscape:connector-curvature="0"
   style="fill:#231f20" />
	</g>
</g>
</svg>