<?xml version="1.0" encoding="UTF-8" standalone="no"?>
<!-- Generator: Adobe Illustrator 19.1.0, SVG Export Plug-In . SVG Version: 6.00 Build 0)  -->

<svg
   xmlns:dc="http://purl.org/dc/elements/1.1/"
   xmlns:cc="http://creativecommons.org/ns#"
   xmlns:rdf="http://www.w3.org/1999/02/22-rdf-syntax-ns#"
   xmlns:svg="http://www.w3.org/2000/svg"
   xmlns="http://www.w3.org/2000/svg"
   xmlns:sodipodi="http://sodipodi.sourceforge.net/DTD/sodipodi-0.dtd"
   xmlns:inkscape="http://www.inkscape.org/namespaces/inkscape"
   version="1.1"
   id="Layer_1"
   x="0px"
   y="0px"
   viewBox="-89 46 72 72"
   enable-background="new -89 46 72 72"
   xml:space="preserve"
   inkscape:version="0.48.4 r9939"
   width="100%"
   height="100%"
   sodipodi:docname="MapSyncChanged.svg"><metadata
   id="metadata3037"><rdf:RDF><cc:Work
       rdf:about=""><dc:format>image/svg+xml</dc:format><dc:type
         rdf:resource="http://purl.org/dc/dcmitype/StillImage" /><dc:title></dc:title></cc:Work></rdf:RDF></metadata><defs
   id="defs3035" /><sodipodi:namedview
   pagecolor="#ffffff"
   bordercolor="#666666"
   borderopacity="1"
   objecttolerance="10"
   gridtolerance="10"
   guidetolerance="10"
   inkscape:pageopacity="0"
   inkscape:pageshadow="2"
   inkscape:window-width="1360"
   inkscape:window-height="715"
   id="namedview3033"
   showgrid="false"
   inkscape:object-paths="true"
   inkscape:snap-center="true"
   inkscape:zoom="3.2777778"
   inkscape:cx="36"
   inkscape:cy="36"
   inkscape:window-x="1912"
   inkscape:window-y="103"
   inkscape:window-maximized="1"
   inkscape:current-layer="Layer_1" />
<path
   fill="none"
   stroke="#FFFF00"
   stroke-width="2"
   stroke-miterlimit="10"
   d="M-56.963,64.442  c-4.199,0.947-8.074,3.392-10.749,7.186c-5.728,8.125-3.785,19.355,4.339,25.083c0.007,0.005,0.014,0.009,0.022,0.014"
   id="path3013" />
<g
   id="g3015"
   transform="translate(4.881356,0.61016947)">
	<polygon
   points="-56.794,101.11 -59.303,88.472 -69.431,103.621 "
   id="polygon3017"
   style="fill:#ffff00" />
</g>
<path
   stroke-miterlimit="10"
   d="m -49.038,99.558 c 4.199,-0.947 8.074,-3.392 10.749,-7.186 5.728,-8.125 3.785,-19.355 -4.339,-25.083 -0.007,-0.005 -0.014,-0.009 -0.022,-0.014 L -46.288136,65.525424 -50.864407,64 -56.963,64.442 l 0,0 -0.901651,0.227802"
   id="path3019"
   stroke-width="2"
   stroke="#FFFF00"
   fill="none" />

<g
   id="g3025">
	<path
   fill="none"
   d="M-71.309,68.986"
   id="path3027" />
</g>

<path
   sodipodi:type="star"
   style="fill:#ffffff;fill-opacity:0"
   id="path3051"
   sodipodi:sides="5"
   sodipodi:cx="31.118644"
   sodipodi:cy="32.949153"
   sodipodi:r1="10.863759"
   sodipodi:r2="5.4318795"
   sodipodi:arg1="0.90482709"
   sodipodi:arg2="1.5331456"
   inkscape:flatsided="false"
   inkscape:rounded="0"
   inkscape:randomized="0"
   d="m 37.830509,41.491527 -6.507398,-3.114343 -6.254666,3.595071 0.95102,-7.151289 -5.351914,-4.837602 7.095161,-1.305397 2.947001,-6.584873 3.434031,6.344509 7.17326,0.767927 -4.972813,5.226519 z"
   transform="translate(-89,46)"
   inkscape:transform-center-x="0.1263668"
   inkscape:transform-center-y="-0.91647949" /><path
   sodipodi:type="arc"
   style="fill:#ffffff;fill-opacity:0"
   id="path3055"
   sodipodi:cx="-80.389832"
   sodipodi:cy="51.864407"
   sodipodi:rx="28.220339"
   sodipodi:ry="30.508474"
   d="m -52.169493,51.864407 a 28.220339,30.508474 0 1 1 -56.440677,0 28.220339,30.508474 0 1 1 56.440677,0 z"
   transform="translate(-89,46)" /><path
   style="fill:#ffffff;fill-opacity:0"
   id="path3061"
   d="m 39.936999,13.964622 c -1.939858,-0.873194 -4.007348,-1.463149 -6.058041,-2.020614 -3.001363,-0.820456 -6.005996,-1.63816 -9.063435,-2.2227 -1.731377,-0.3179637 -3.486679,-0.4529684 -5.244313,-0.4886626 -0.870134,0.01523 -1.749686,-0.094524 -2.587068,0.1799177 -1.404616,0.5118811 -3.696679,1.9841019 2.787821,-1.6751405 0.139769,-0.078872 -0.273738,0.1676073 -0.410497,0.2515906 -0.525704,0.3228335 -0.287995,0.1724391 -0.807914,0.5136711 -0.693984,0.5232121 -1.298082,1.1447409 -1.814914,1.8409267 -0.202563,0.298553 -0.368661,0.619184 -0.541732,0.93507 0,0 -4.111444,1.849853 -4.111444,1.849853 l 0,0 c 0.169783,-0.335591 0.373563,-0.64943 0.522114,-0.995769 0.516061,-0.734804 1.0921,-1.400416 1.77787,-1.985666 0.379938,-0.2894815 0.782466,-0.5554733 1.195889,-0.7957463 1.592031,-0.9252537 3.147622,-2.1986758 4.980564,-2.6705763 0.867456,-0.1432312 1.748898,-0.076688 2.624306,-0.055331 1.735655,0.086478 3.465109,0.2757342 5.168251,0.6306791 3.041485,0.6446169 6.03575,1.4849834 9.043446,2.2688086 2.118897,0.5547209 4.23178,1.1503379 6.284595,1.9186039 0,0 -3.745498,2.521085 -3.745498,2.521085 z"
   inkscape:connector-curvature="0"
   transform="translate(-89,46)" /></svg>